<svg width="40" height="40" viewBox="0 0 40 40" fill="none" xmlns="http://www.w3.org/2000/svg">
<path d="M20 1.66675C20.9205 1.66675 21.6667 2.41294 21.6667 3.33341V5.12304C24.2274 5.5081 26.1472 6.73677 27.457 7.93876C27.9028 8.3478 28.2813 8.75632 28.5954 9.13251C28.9494 9.55643 28.8388 10.183 28.3874 10.5013L27.2977 11.2697C26.8464 11.5879 26.2258 11.4762 25.8595 11.0629C25.6682 10.8471 25.4496 10.6208 25.2033 10.3947C24.3486 9.61045 23.1845 8.84783 21.6667 8.51201V10.6539V18.4042C23.7454 18.5885 25.6224 19.1479 27.0907 20.2508C29.0275 21.7056 30 23.9113 30 26.6667C30 29.5187 28.7965 31.745 26.8532 33.2111C25.3882 34.3164 23.5735 34.9409 21.6667 35.1651V36.6667C21.6667 37.5872 20.9205 38.3334 20 38.3334C19.0796 38.3334 18.3334 37.5872 18.3334 36.6667V35.1121C15.9374 34.686 13.9003 33.419 12.455 32.2674C11.9092 31.8325 11.4287 31.3988 11.0234 31.005C10.6273 30.6201 10.6519 29.9856 11.0563 29.6095L12.0327 28.7014C12.4371 28.3253 13.068 28.3505 13.4679 28.7313C13.778 29.0266 14.1351 29.344 14.5323 29.6605C15.6336 30.5381 16.939 31.3262 18.3334 31.6996L18.3334 21.5577C13.4008 20.9008 10 17.3635 10 13.3334C10 11.2342 10.8124 9.11023 12.543 7.52209C13.9632 6.21888 15.9103 5.35749 18.3334 5.08932V3.33341C18.3334 2.41294 19.0796 1.66675 20 1.66675ZM16.5676 8.90352C15.8274 9.19147 15.2449 9.56683 14.7968 9.97807C13.8031 10.8899 13.3334 12.0993 13.3334 13.3334C13.3334 15.2357 15.0032 17.5925 18.3334 18.1904L18.3334 9.50967V8.44911C17.6645 8.54765 17.0785 8.70476 16.5676 8.90352ZM21.6667 31.8015C22.938 31.6008 24.0271 31.1676 24.8456 30.5501C25.9471 29.7191 26.6667 28.4815 26.6667 26.6667C26.6667 24.7555 26.0366 23.6279 25.0888 22.916C24.3157 22.3353 23.1881 21.9239 21.6667 21.7538L21.6667 31.8015Z" fill="#664EFD"/>
</svg>
