<svg width="40" height="40" viewBox="0 0 40 40" fill="none" xmlns="http://www.w3.org/2000/svg">
<path fill-rule="evenodd" clip-rule="evenodd" d="M11.6667 23.3334H13.3333C16.0595 23.3334 18.48 24.6425 20.0004 26.6664C21.44 24.749 23.6882 23.4732 26.2388 23.3442L26.6667 23.3334H28.3333C32.9357 23.3334 36.6667 27.0644 36.6667 31.6667C36.6667 32.5872 35.9205 33.3334 35 33.3334C34.1453 33.3334 33.4408 32.69 33.3445 31.8611L33.3248 31.373C33.1784 28.8455 31.1546 26.8217 28.6271 26.6752L28.3333 26.6667H26.6667C23.9052 26.6667 21.6667 28.9053 21.6667 31.6667C21.6667 32.5215 21.0233 33.2259 20.1944 33.3222L20 33.3334C19.1453 33.3334 18.4408 32.69 18.3445 31.8611L18.3248 31.373C18.1784 28.8455 16.1546 26.8217 13.6271 26.6752L13.3333 26.6667H11.6667C8.90524 26.6667 6.66666 28.9053 6.66666 31.6667C6.66666 32.5872 5.92047 33.3334 4.99999 33.3334C4.07952 33.3334 3.33333 32.5872 3.33333 31.6667C3.33333 27.1855 6.87051 23.5304 11.3052 23.3411L11.6667 23.3334ZM11.6667 6.66675C15.3486 6.66675 18.3333 9.65152 18.3333 13.3334C18.3333 17.0153 15.3486 20.0001 11.6667 20.0001C7.98476 20.0001 4.99999 17.0153 4.99999 13.3334C4.99999 9.65152 7.98476 6.66675 11.6667 6.66675ZM28.3333 6.66675C32.0152 6.66675 35 9.65152 35 13.3334C35 17.0153 32.0152 20.0001 28.3333 20.0001C24.6514 20.0001 21.6667 17.0153 21.6667 13.3334C21.6667 9.65152 24.6514 6.66675 28.3333 6.66675ZM11.6667 10.0001C9.82571 10.0001 8.33333 11.4925 8.33333 13.3334C8.33333 15.1744 9.82571 16.6667 11.6667 16.6667C13.5076 16.6667 15 15.1744 15 13.3334C15 11.4925 13.5076 10.0001 11.6667 10.0001ZM28.3333 10.0001C26.4924 10.0001 25 11.4925 25 13.3334C25 15.1744 26.4924 16.6667 28.3333 16.6667C30.1743 16.6667 31.6667 15.1744 31.6667 13.3334C31.6667 11.4925 30.1743 10.0001 28.3333 10.0001Z" fill="#664EFD"/>
</svg>
