<svg width="40" height="40" viewBox="0 0 40 40" fill="none" xmlns="http://www.w3.org/2000/svg">
<path fill-rule="evenodd" clip-rule="evenodd" d="M18.2841 13.3012C21.5159 9.4836 26.5657 7.70607 31.4135 8.57464C32.2215 13.4628 30.6056 18.452 26.7677 21.6839L20.91 26.5317L19.698 27.3195L12.6283 20.3507L13.4363 19.0378L18.2841 13.3012ZM11.012 16.7956L15.8598 11.1197C15.8598 11.0793 15.8598 11.0389 15.8598 10.9985C13.8399 11.4227 11.214 12.5538 8.1841 15.1999L11.012 16.7956ZM19.8998 7.54441C23.7376 5.16091 28.5854 4.37314 33.2312 5.50429C33.8372 5.68609 34.2412 6.19106 34.4432 6.85764C35.6551 11.4226 34.8472 16.1694 32.4233 20.0679C32.6253 20.8557 32.6253 21.8858 32.6253 23.118C32.4233 25.9458 31.0093 29.7433 27.1715 34.0659C25.7575 35.8232 23.1317 35.399 21.9197 33.5205L20.5058 31.1774C19.8998 31.5006 18.8898 31.3592 18.2839 30.7734L18.4858 30.9754L17.2739 32.1672C16.062 33.4801 13.84 33.4801 12.6281 32.1672L7.7803 27.4002C6.56835 26.0872 6.56835 23.9461 7.7803 22.6332L8.99225 21.4414L9.19424 21.6434C8.58826 21.0374 8.58826 20.1689 8.79025 19.4417L6.56835 18.048C4.54843 16.9572 4.14445 14.2909 5.96237 12.7558C10.2042 8.95835 14.042 7.6858 16.8699 7.42321C18.0819 7.32222 19.0918 7.40301 19.8998 7.54441ZM11.4157 23.825L10.2038 25.0168L15.0516 29.7838L16.2635 28.592L11.4157 23.825ZM23.1325 29.0565L24.7485 31.7429C27.3744 28.7131 28.5863 26.1074 28.9903 24.1481C28.9903 24.1885 28.9903 24.2087 28.9903 24.2491L23.1325 29.0565Z" fill="#664EFD"/>
</svg>
