<svg width="24" height="24" viewBox="0 0 24 24" fill="none" xmlns="http://www.w3.org/2000/svg">
<path d="M19.2256 3.06077C20.5924 4.42761 20.5924 6.64368 19.2256 8.01052L8.0542 19.1819C7.71968 19.5164 7.31079 19.7671 6.86091 19.9134L3.94496 20.862C2.39037 21.3677 0.918671 19.896 1.42437 18.3414L2.37292 15.4255C2.51927 14.9756 2.76993 14.5667 3.10445 14.2322L14.2758 3.06077C15.6427 1.69394 17.8588 1.69393 19.2256 3.06077ZM15.6901 4.47498L4.51867 15.6464C4.40716 15.7579 4.3236 15.8942 4.27482 16.0441L3.32627 18.9601L6.24222 18.0115C6.39218 17.9628 6.52848 17.8792 6.63999 17.7677L17.8114 6.5963C18.3972 6.01052 18.3972 5.06077 17.8114 4.47498C17.2256 3.8892 16.2758 3.8892 15.6901 4.47498ZM9.99998 21.0001C9.4477 21.0001 8.99998 21.4478 8.99998 22.0001C8.99998 22.5524 9.4477 23.0001 9.99998 23.0001H21C21.5523 23.0001 22 22.5524 22 22.0001C22 21.4478 21.5523 21.0001 21 21.0001H9.99998Z" fill="#575757"/>
</svg>
