<svg width="16" height="12" viewBox="0 0 16 12" fill="none" xmlns="http://www.w3.org/2000/svg">
<path d="M6.70711 0.292893C6.31658 -0.0976309 5.68342 -0.0976312 5.29289 0.292893L0.292892 5.29289C0.105355 5.48043 -1.90735e-06 5.73478 -1.90735e-06 6C-1.90735e-06 6.26521 0.105355 6.51957 0.292892 6.70711L5.29289 11.7071C5.68341 12.0976 6.31658 12.0976 6.7071 11.7071C7.09763 11.3166 7.09763 10.6834 6.7071 10.2929L3.41421 7L15 7C15.5523 7 16 6.55228 16 6C16 5.44771 15.5523 5 15 5L3.41421 5L6.70711 1.70711C7.09763 1.31658 7.09763 0.683418 6.70711 0.292893Z" fill="#0E0E10"/>
</svg>
