<svg width="25" height="24" viewBox="0 0 25 24" fill="none" xmlns="http://www.w3.org/2000/svg">
<g clip-path="url(#clip0_891_897)">
<path fill-rule="evenodd" clip-rule="evenodd" d="M13.9197 19.6329C11.9719 21.5903 9.03282 21.8237 7.35501 20.1542C5.67719 18.4847 5.89603 15.5444 7.8438 13.587L13.4866 7.91613C14.6553 6.74166 16.4188 6.60161 17.4254 7.60332C18.4321 8.60503 18.3008 10.3692 17.1322 11.5437L11.4894 17.2145C11.0998 17.606 10.512 17.6527 10.1764 17.3188C9.84085 16.9849 9.88462 16.3968 10.2742 16.0053L15.917 10.3345L15.9952 10.2477C16.3109 9.86028 16.3263 9.33109 16.0147 9.02103C15.7031 8.71098 15.174 8.72909 14.7881 9.0467L14.7018 9.1253L9.05899 14.7962C7.89032 15.9706 7.75902 17.7348 8.76571 18.7365C9.7724 19.7382 11.5359 19.5982 12.7045 18.4237L18.3474 12.7528C20.2951 10.7954 20.514 7.85513 18.8362 6.1856C17.2025 4.56002 14.373 4.73853 12.4272 6.55601L12.2714 6.70696L6.62862 12.3778C6.23906 12.7693 5.65124 12.816 5.31567 12.4821C4.98011 12.1482 5.02388 11.5601 5.41343 11.1686L11.0562 5.49778C13.7831 2.75734 17.8979 2.43056 20.2469 4.76789C22.5958 7.10522 22.2894 11.2216 19.5625 13.962L13.9197 19.6329Z" fill="#0E0E10"/>
</g>
<defs>
<clipPath id="clip0_891_897">
<rect width="24" height="24" fill="white" transform="translate(0.5)"/>
</clipPath>
</defs>
</svg>
