<svg width="16" height="12" viewBox="0 0 16 12" fill="none" xmlns="http://www.w3.org/2000/svg">
<path d="M9.29289 0.292893C9.68342 -0.0976309 10.3166 -0.0976312 10.7071 0.292893L15.7071 5.29289C15.8946 5.48043 16 5.73478 16 6C16 6.26521 15.8946 6.51957 15.7071 6.70711L10.7071 11.7071C10.3166 12.0976 9.68342 12.0976 9.2929 11.7071C8.90237 11.3166 8.90237 10.6834 9.2929 10.2929L12.5858 7L1 7C0.447715 7 0 6.55228 0 6C5.96046e-08 5.44771 0.447715 5 1 5L12.5858 5L9.29289 1.70711C8.90237 1.31658 8.90237 0.683418 9.29289 0.292893Z" fill="#0E0E10"/>
</svg>
