<svg width="40" height="40" viewBox="0 0 40 40" fill="none" xmlns="http://www.w3.org/2000/svg">
<g clip-path="url(#clip0_461_2295)">
<path d="M35.9375 9.6875H5.70312V30.4688H35.9375V9.6875Z" fill="white"/>
<path fill-rule="evenodd" clip-rule="evenodd" d="M13.6782 0.0249468C10.4488 0.201587 8.97125 0.513306 7.22958 1.38534C4.61591 2.69401 2.53841 4.81877 1.25653 7.49432C0.605981 8.85203 0.324184 9.99469 0.104966 12.1641C-0.0370656 13.5696 -0.0340968 26.3024 0.108638 27.8281C0.304888 29.9262 0.654106 31.2725 1.37598 32.7142C2.68466 35.3279 4.80942 37.4054 7.48497 38.6873C8.84273 39.3378 9.98539 39.6196 12.1548 39.8388C13.5603 39.9809 26.2931 39.9779 27.8188 39.8352C29.9169 39.6389 31.2632 39.2897 32.7049 38.5678C35.3186 37.2591 37.3961 35.1344 38.678 32.4588C39.3285 31.1011 39.6103 29.9584 39.8295 27.7891C39.9716 26.3835 39.9686 13.6507 39.8259 12.125C39.6296 10.027 39.2804 8.68062 38.5585 7.23893C37.2498 4.62526 35.1251 2.54776 32.4495 1.26588C31.132 0.634634 30.0104 0.350962 27.936 0.124322C27.1811 0.0418999 14.9305 -0.0434907 13.6782 0.0249468ZM22.1138 13.2856C22.9241 13.4754 23.4545 13.7738 24.0748 14.3891C24.7027 15.012 24.9815 15.5155 25.1795 16.3847C25.2959 16.8953 25.313 17.5039 25.3157 21.2266C25.3181 24.5602 25.2965 25.5476 25.2157 25.7755C25.0704 26.1859 24.4921 26.6753 24.0816 26.7353C23.9027 26.7615 20.9263 26.7709 17.4673 26.7564C10.5557 26.7274 10.9295 26.7527 9.92867 26.2459C9.43914 25.998 8.58719 25.142 8.30734 24.6168C7.82281 23.7074 7.81883 23.6593 7.81883 18.7266C7.81883 14.3748 7.82375 14.2261 7.97508 13.9692C8.2268 13.542 8.64836 13.2509 9.12 13.1784C9.34969 13.143 12.2446 13.124 15.5532 13.1361C20.7922 13.1552 21.6392 13.1745 22.1138 13.2856ZM31.7541 13.4794C32.1595 13.7449 32.1548 13.6687 32.1548 19.9818C32.1548 26.4173 32.1701 26.2016 31.6923 26.4839C31.5681 26.5572 31.3253 26.6172 31.1526 26.6172C30.7786 26.6172 30.7356 26.5864 28.4697 24.6919C26.9459 23.4178 26.8403 23.3121 26.5947 22.8135L26.3345 22.2852L26.3088 20.1738C26.2806 17.8423 26.3357 17.4238 26.7517 16.8125C26.8687 16.6406 27.6664 15.9097 28.5245 15.1882C30.2873 13.7059 30.7203 13.3705 30.9438 13.314C31.1627 13.2586 31.5324 13.3341 31.7541 13.4794Z" fill="url(#paint0_linear_461_2295)"/>
</g>
<defs>
<linearGradient id="paint0_linear_461_2295" x1="6.52344" y1="2.69531" x2="24.4531" y2="39.9219" gradientUnits="userSpaceOnUse">
<stop offset="0.0696836" stop-color="#539EFE"/>
<stop offset="1" stop-color="#4085FC"/>
</linearGradient>
<clipPath id="clip0_461_2295">
<rect width="40" height="40" fill="white"/>
</clipPath>
</defs>
</svg>
