<svg width="24" height="24" viewBox="0 0 24 24" fill="none" xmlns="http://www.w3.org/2000/svg">
<path d="M16.9497 8.46357C17.3403 8.07305 17.3403 7.43988 16.9497 7.04936C16.5592 6.65883 15.9261 6.65883 15.5355 7.04936L12 10.5849L8.46447 7.04936C8.07394 6.65883 7.44078 6.65883 7.05025 7.04936C6.65973 7.43988 6.65973 8.07305 7.05025 8.46357L10.5858 11.9991L7.05025 15.5346C6.65973 15.9252 6.65973 16.5583 7.05025 16.9489C7.44078 17.3394 8.07394 17.3394 8.46447 16.9489L12 13.4133L15.5355 16.9489C15.9261 17.3394 16.5592 17.3394 16.9497 16.9489C17.3403 16.5583 17.3403 15.9252 16.9497 15.5346L13.4142 11.9991L16.9497 8.46357Z" fill="#575757"/>
</svg>
