<svg width="24" height="24" viewBox="0 0 24 24" fill="none" xmlns="http://www.w3.org/2000/svg">
<path fill-rule="evenodd" clip-rule="evenodd" d="M1.12971 4.95701C1.12971 4.20635 1.78387 3.59961 2.43804 3.59961H21.5725C22.2267 3.59961 22.8808 4.20635 22.8808 4.95701C22.8808 5.70604 22.2267 6.31443 21.5725 6.31443H2.43804C1.78387 6.31443 1.12971 5.70604 1.12971 4.95701ZM1.1297 11.744C1.1297 10.995 1.78387 10.3866 2.43804 10.3866H21.5725C22.2267 10.3866 22.8808 10.995 22.8808 11.744C22.8808 12.493 22.2267 13.1014 21.5725 13.1014H2.43804C1.78387 13.1014 1.1297 12.493 1.1297 11.744ZM2.43804 17.1736C1.78387 17.1736 1.1297 17.782 1.1297 18.531C1.1297 19.2817 1.78387 19.8884 2.43804 19.8884H21.5725C22.2267 19.8884 22.8808 19.2817 22.8808 18.531C22.8808 17.782 22.2267 17.1736 21.5725 17.1736H2.43804Z" fill="black"/>
</svg>
