<svg width="16" height="16" viewBox="0 0 16 16" fill="none" xmlns="http://www.w3.org/2000/svg">
<path d="M7.55163 0.908492C7.73504 0.536869 8.26496 0.53687 8.44837 0.908493L10.5287 5.1237C10.6015 5.27127 10.7423 5.37356 10.9052 5.39722L15.5569 6.07316C15.967 6.13276 16.1308 6.63674 15.834 6.92601L12.468 10.2071C12.3501 10.322 12.2964 10.4875 12.3242 10.6497L13.1188 15.2826C13.1889 15.6911 12.7601 16.0026 12.3933 15.8097L8.23267 13.6223C8.08701 13.5457 7.91299 13.5457 7.76733 13.6223L3.60667 15.8097C3.23985 16.0026 2.81114 15.6911 2.88119 15.2826L3.67581 10.6497C3.70363 10.4875 3.64985 10.322 3.53201 10.2071L0.165966 6.92601C-0.130793 6.63674 0.0329629 6.13276 0.443073 6.07316L5.09483 5.39722C5.25769 5.37356 5.39847 5.27127 5.4713 5.1237L7.55163 0.908492Z" fill="#0E0E10"/>
</svg>
