<svg width="24" height="24" viewBox="0 0 24 24" fill="none" xmlns="http://www.w3.org/2000/svg">
<path d="M12.2071 21.7071C11.9932 21.921 11.694 22.0266 11.3932 21.9943C11.0924 21.962 10.8224 21.7952 10.6588 21.5408L6.45405 15H4C2.89543 15 2 14.1046 2 13V3.99999C2 2.89542 2.89543 1.99999 4 1.99999L7 1.99999C7.00066 1.99999 7.00132 1.99999 7.00197 1.99999H15.8464C18.1584 1.99999 20.1688 3.58503 20.7084 5.83313L22.3804 12.7999C22.8331 14.6864 21.4033 16.5 19.4632 16.5H14V19.0858C14 19.6162 13.7893 20.1249 13.4142 20.5L12.2071 21.7071ZM8 3.99999V13.7063L11.6702 19.4155L12 19.0858V15.5C12 14.9477 12.4477 14.5 13 14.5H19.4632C20.1099 14.5 20.5865 13.8954 20.4356 13.2666L18.7636 6.29988C18.4398 4.95102 17.2336 3.99999 15.8464 3.99999H8ZM6 3.99999H4V13H6V3.99999Z" fill="#0E0E10"/>
</svg>
