<svg width="24" height="24" viewBox="0 0 24 24" fill="none" xmlns="http://www.w3.org/2000/svg">
<path d="M12.7526 0.841498C12.5541 0.614572 12.2637 0.489356 11.9624 0.500708C11.6611 0.51206 11.381 0.658743 11.2001 0.899927L11.2 0.899994L11.1999 0.900202L11.1988 0.90167L11.1938 0.908328L11.1728 0.93608C11.1541 0.960832 11.1259 0.997849 11.0893 1.04579C11.0159 1.1417 10.9084 1.28121 10.7733 1.45365C10.5029 1.79885 10.1233 2.27431 9.68677 2.7951C8.79809 3.85527 7.72808 5.03691 6.87531 5.71913C4.20499 7.85538 2.5 10.6198 2.5 14C2.5 17.009 3.60235 19.408 5.38545 21.0484C7.15553 22.6769 9.53231 23.5 12 23.5C16.896 23.5 22 20.1966 22 14C22 11.0928 21.3381 8.9465 20.6529 7.50757C20.3112 6.79003 19.9656 6.25221 19.6977 5.88605C19.5637 5.70298 19.4491 5.56275 19.364 5.4643C19.3215 5.41507 19.2863 5.37626 19.2597 5.34775C19.2465 5.33349 19.2353 5.3218 19.2265 5.31266L19.215 5.30087L19.2106 5.29641L19.2087 5.29453L19.2079 5.29368C19.2075 5.29328 19.2071 5.29289 18.5 6L19.2071 5.29289C18.962 5.04783 18.6076 4.94712 18.2702 5.02675C17.9355 5.10578 17.665 5.35126 17.5538 5.67639L17.551 5.68394C17.5471 5.69452 17.5391 5.71517 17.5268 5.74472C17.502 5.8039 17.4597 5.89825 17.3963 6.01863C17.2694 6.25985 17.0599 6.60187 16.7407 6.97421C16.3434 7.43783 15.77 7.95604 14.9573 8.38717C15.0081 8.05227 15.0466 7.68371 15.0618 7.28843C15.1318 5.4684 14.7067 3.07481 12.7526 0.841498ZM11.2195 4.0799C11.5024 3.74238 11.762 3.42366 11.9852 3.14476C12.9005 4.59734 13.1081 6.04609 13.0632 7.21156C13.0355 7.93225 12.9105 8.5428 12.7934 8.96994C12.7351 9.18275 12.6793 9.34774 12.6399 9.4554C12.6203 9.50916 12.6048 9.5484 12.5952 9.57193L12.5856 9.59521C12.585 9.59655 12.5846 9.59735 12.5845 9.59761L12.585 9.59656L12.5854 9.59559C12.4311 9.94458 12.4888 10.351 12.7344 10.6433C12.9803 10.936 13.3716 11.0629 13.7425 10.9701C15.9672 10.414 17.3909 9.28885 18.2593 8.27579C18.3797 8.1353 18.4891 7.99731 18.5884 7.86372C18.6728 8.01618 18.7598 8.18401 18.8471 8.36743C19.4119 9.5535 20 11.4072 20 14C20 17.2496 18.2169 19.535 15.7925 20.6735C15.9245 20.3017 16 19.9069 16 19.5C16 17.8356 15.0067 16.5871 14.1757 15.8253C13.7473 15.4326 13.323 15.1325 13.0071 14.9307C12.8482 14.8292 12.7141 14.7509 12.6172 14.6967C12.5687 14.6695 12.5292 14.6483 12.5005 14.6331L12.4654 14.6148L12.4541 14.609L12.4501 14.607L12.4485 14.6062L12.4478 14.6059C12.4475 14.6057 12.4472 14.6056 12 15.5L12.4472 14.6056L12 14.382L11.5528 14.6056L12 15.5C11.5528 14.6056 11.5525 14.6057 11.5522 14.6059L11.5515 14.6062L11.5499 14.607L11.5459 14.609L11.5346 14.6148L11.4995 14.6331C11.4708 14.6483 11.4313 14.6695 11.3828 14.6967C11.2859 14.7509 11.1518 14.8292 10.9929 14.9307C10.677 15.1325 10.2527 15.4326 9.82428 15.8253C8.99326 16.5871 8 17.8356 8 19.5C8 19.8768 8.05926 20.24 8.16546 20.5829C7.64609 20.3064 7.16703 19.9698 6.73956 19.5766C5.39765 18.342 4.5 16.491 4.5 14C4.5 11.3802 5.79501 9.14462 8.12469 7.28087C9.14692 6.46309 10.3269 5.14473 11.2195 4.0799ZM12.5858 9.59468C12.586 9.59428 12.5862 9.59386 13.5 10L12.5862 9.59386L12.5858 9.59468ZM12.8243 17.2997C13.4933 17.9129 14 18.6644 14 19.5C14 19.9248 13.7775 20.4332 13.3554 20.8554C12.9332 21.2775 12.4248 21.5 12 21.5C11.5544 21.5 11.0455 21.2848 10.6366 20.885C10.2308 20.4882 10 19.9847 10 19.5C10 18.6644 10.5067 17.9129 11.1757 17.2997C11.4679 17.0319 11.7634 16.8166 12 16.6612C12.2366 16.8166 12.5321 17.0319 12.8243 17.2997Z" fill="white"/>
</svg>
