<svg width="24" height="24" viewBox="0 0 24 24" fill="none" xmlns="http://www.w3.org/2000/svg">
<path d="M12.2071 2.2929C11.9932 2.07899 11.694 1.97341 11.3932 2.00573C11.0924 2.03804 10.8224 2.20478 10.6588 2.45925L6.45405 9.00001H4C2.89543 9.00001 2 9.89544 2 11V20C2 21.1046 2.89543 22 4 22L7 22C7.00066 22 7.00132 22 7.00197 22H15.8464C18.1584 22 20.1688 20.415 20.7084 18.1669L22.3804 11.2001C22.8331 9.31365 21.4033 7.50001 19.4632 7.50001H14V4.91422C14 4.38379 13.7893 3.87508 13.4142 3.50001L12.2071 2.2929ZM8 20V10.2937L11.6702 4.58445L12 4.91422V8.50001C12 9.05229 12.4477 9.50001 13 9.50001H19.4632C20.1099 9.50001 20.5865 10.1046 20.4356 10.7334L18.7636 17.7001C18.4398 19.049 17.2336 20 15.8464 20H8ZM6 20H4V11H6V20Z" fill="#0E0E10"/>
</svg>
