<svg width="50" height="22" viewBox="0 0 50 22" fill="none" xmlns="http://www.w3.org/2000/svg">
<path d="M2.12793 2.05337V20.5334H5.34611V2.05337H2.12793ZM4.03702 4.79897H7.88247C8.99157 4.79897 9.88247 5.05417 10.5552 5.56457C11.2279 6.05737 11.5643 6.79657 11.5643 7.78217C11.5643 8.76777 11.2279 9.51577 10.5552 10.0262C9.88247 10.5366 8.99157 10.7918 7.88247 10.7918H4.03702V13.5374H7.88247C9.26429 13.5374 10.4643 13.3086 11.4825 12.851C12.5188 12.3758 13.3188 11.707 13.8825 10.8446C14.4461 9.98217 14.7279 8.96137 14.7279 7.78217C14.7279 6.60297 14.4461 5.59097 13.8825 4.74617C13.3188 3.88377 12.5188 3.22377 11.4825 2.76617C10.4643 2.29097 9.26429 2.05337 7.88247 2.05337H4.03702V4.79897ZM17.895 2.05337V20.5334H21.1678V2.05337H17.895ZM24.0587 20.5334C26.0041 20.5334 27.7132 20.155 29.186 19.3982C30.6587 18.6238 31.8041 17.5502 32.6223 16.1774C33.4587 14.787 33.8769 13.159 33.8769 11.2934C33.8769 9.42777 33.4587 7.80857 32.6223 6.43577C31.8041 5.04537 30.6587 3.97177 29.186 3.21497C27.7132 2.44057 26.0041 2.05337 24.0587 2.05337H19.886V4.98377H23.9769C24.9223 4.98377 25.795 5.11577 26.595 5.37977C27.395 5.64377 28.086 6.03977 28.6678 6.56777C29.2678 7.09577 29.7314 7.75577 30.0587 8.54777C30.4041 9.33977 30.5769 10.255 30.5769 11.2934C30.5769 12.3318 30.4041 13.247 30.0587 14.039C29.7314 14.831 29.2678 15.491 28.6678 16.019C28.086 16.547 27.395 16.943 26.595 17.207C25.795 17.471 24.9223 17.603 23.9769 17.603H19.886V20.5334H24.0587ZM39.0087 4.85177H47.545V2.05337H39.0087V4.85177ZM39.0087 12.191H47.2723V9.47177H39.0087V12.191ZM37.0178 2.05337V20.5334H40.1814V2.05337H37.0178Z" fill="black"/>
</svg>
