<svg width="40" height="40" viewBox="0 0 40 40" fill="none" xmlns="http://www.w3.org/2000/svg">
<path fill-rule="evenodd" clip-rule="evenodd" d="M15.9242 16.3868C16.3878 16.0777 16.6663 15.5573 16.6663 15V8.33337C16.6663 5.57195 14.4278 3.33337 11.6663 3.33337H4.99967C4.0792 3.33337 3.33301 4.07957 3.33301 5.00004C3.33301 21.5686 18.4311 36.6667 34.9997 36.6667C35.9201 36.6667 36.6663 35.9205 36.6663 35V28.3334C36.6663 25.5719 34.4278 23.3334 31.6663 23.3334H24.9997C24.4424 23.3334 23.922 23.6119 23.6129 24.0755L20.4373 28.8389C16.9787 26.6025 13.9484 23.6487 11.6176 20.2483L11.1608 19.5624L15.9242 16.3868ZM25.8916 26.6667H31.6663C32.5868 26.6667 33.333 27.4129 33.333 28.3334V33.2756C30.1043 33.0522 26.9532 32.1886 24.0142 30.8193L23.3398 30.4944L25.8916 26.6667ZM6.72461 6.66675H11.6668C12.5873 6.66675 13.3335 7.41294 13.3335 8.33341V14.1081L9.50579 16.6599C7.9482 13.5308 6.96521 10.1438 6.72461 6.66675Z" fill="black"/>
</svg>
