<svg width="24" height="24" viewBox="0 0 24 24" fill="none" xmlns="http://www.w3.org/2000/svg">
<path d="M15.5939 6.8076C13.1675 4.38119 9.23352 4.38119 6.80711 6.8076C4.3807 9.23401 4.3807 13.168 6.80711 15.5944C9.23352 18.0208 13.1675 18.0208 15.5939 15.5944C18.0203 13.168 18.0203 9.23401 15.5939 6.8076ZM5.3929 5.39338C8.60035 2.18593 13.8007 2.18593 17.0081 5.39338C19.9762 8.36148 20.1977 13.0361 17.6726 16.2589L21.7985 20.3848C22.189 20.7753 22.189 21.4085 21.7985 21.799C21.408 22.1895 20.7748 22.1895 20.3843 21.799L16.2584 17.6731C13.0356 20.1982 8.36099 19.9767 5.3929 17.0086C2.18544 13.8012 2.18544 8.60084 5.3929 5.39338Z" fill="black"/>
</svg>
